<svg height="100mm" viewBox="0 0 100 100" width="100mm" xmlns="http://www.w3.org/2000/svg"><path d="m13.386 38.274c-2.8277 0-5.3165-.27285-7.4662-.81855-2.1332-.5457-5.9366-1.1741-5.9201-2.3316l.033073-7.9871c-.014882-.40073.35918-.52828.77721-.49609 1.8521 1.571 3.8943 2.7781 6.1268 3.6215 2.2324.84336 4.3987 1.265 6.4988 1.265.52917 0 1.2237-.05788 2.0836-.17363.87643-.11576 1.5792-.29766 2.1084-.5457.64492-.28112 1.1906-.66973 1.6371-1.1658.44648-.51263.66973-1.1824.66973-2.0092 0-.92604-.3638-1.6784-1.0914-2.2572s-1.5958-1.0005-2.6045-1.265c-1.2568-.33073-2.6045-.64492-4.0432-.94258-1.4221-.29766-2.7533-.66146-3.9936-1.0914-2.8608-1.0087-4.9113-2.3647-6.1516-4.068-1.2402-1.7033-1.8604-3.8365-1.8604-6.3996 0-3.4561 1.4635-6.2508 4.3904-8.384 2.927-2.1497 6.5815-3.2246 10.964-3.2246 2.1993 0 4.3822.22324 6.5484.66973 2.1828.44648 5.6308 1.2839 5.7136 2.8865l.04677 6.7498c.0024.52807-.27969.59972-.72501.60804-1.2665-.85593-3.0461-2.1517-5.0353-2.9766-1.9678-.81029-3.9936-1.2154-6.0771-1.2154-.81029 0-1.5379.057878-2.1828.17363-.64492.11576-1.3229.339-2.034.66973-.57878.26458-1.0831.66146-1.5131 1.1906-.41341.51263-.62012 1.0914-.62012 1.7363 0 .94258.33073 1.695.99219 2.2572.678.5457 1.9761 1.0418 3.8943 1.4883 1.2402.28112 2.4309.55397 3.5719.81856 1.1576.26458 2.3895.62838 3.6959 1.0914 2.5632.92604 4.4648 2.1745 5.7051 3.7455 1.2568 1.5544 1.8852 3.6132 1.8852 6.1764 0 3.6711-1.4469 6.6229-4.3408 8.8553-2.8773 2.2324-6.7717 3.3486-11.683 3.3486z" transform="matrix(1.0138 0 0 .99283 18 31.001)"/><path d="m-30.778 36.934h-9.8217c-.51834.0026-.74952-.20069-1.015-.51281l-13.047-17.955v6.3876l-.000156 11.08c-.02301.52955-.38626.98834-1 1.0002l-7.525-.000177c-.65859.0065-1.0253-.48624-1-1v-34.934c-.02856-.69523.3231-1.0102 1-1l7.525.00000087c.50081.015136 1.0012.3055 1 1l.000156 17.467 13.047-17.954c.32352-.43201.46859-.49346 1.015-.51263h9.8217c.22124.0039136.23403.13414.05425.3367l-14.14 18.13 14.14 17.905c.13558.18768.13615.55421-.05425.56206z" transform="matrix(-1.0138 0 0 .97469 16.927 32.001)"/><circle cx="50" cy="50" fill="none" r="45.07" stroke="#000" stroke-width="9.8601"/></svg>