 <svg
	width="491"
	height="489"
	viewBox="0 0 491 489"
	fill="none"
	xmlns="http://www.w3.org/2000/svg"
>
	<circle
		cx="246.712"
		cy="244.288"
		r="244.288"
		fill="url(#paint0_radial_100_111215)"
	/>
	<path
		d="M294.5 246.938L295.022 245.362C298.558 234.521 300.296 223.174 300.168 211.772C295.057 208.489 286.882 206.905 275.998 207.157H275.615L275.667 206.774C280.439 175.021 276.93 143.642 265.542 116.025L265.359 115.58H265.838C286.542 115.102 299.794 119.751 304.208 129.015C308.5 138.044 303.999 150.781 291.191 165.844C297.248 180.294 300.516 195.759 300.821 211.423C302.946 212.779 304.66 214.691 305.775 216.952C309.118 223.996 305.592 233.93 295.58 245.684L294.5 246.938ZM300.83 212.216C300.903 222.98 299.324 233.693 296.146 243.978C305.166 233.007 308.291 223.778 305.183 217.231C304.191 215.21 302.691 213.482 300.83 212.216ZM278.192 206.478C287.865 206.478 295.284 208.019 300.168 211.005C299.807 195.5 296.535 180.201 290.521 165.905L290.443 165.722L290.573 165.565C303.302 150.651 307.812 138.105 303.633 129.293C299.454 120.482 286.49 115.833 266.343 116.233C277.592 143.738 281.066 174.934 276.39 206.513L278.192 206.478Z"
		fill="white"
	/>
	<path
		d="M300.525 219.948L300.029 219.521C311.347 206.235 315.387 195.064 311.661 187.219C307.847 179.2 296.215 175.187 278.027 175.596V174.943C296.485 174.525 308.335 178.669 312.27 186.941C316.101 195.029 312.035 206.444 300.525 219.948Z"
		fill="white"
	/>
	<path
		d="M298.975 193.166L298.479 192.739C310.782 178.312 315.152 166.184 311.104 157.669C306.959 148.962 294.326 144.609 274.536 145.035V144.382C294.561 143.929 307.395 148.422 311.652 157.381C315.892 166.149 311.496 178.53 298.975 193.166Z"
		fill="white"
	/>
	<path
		d="M306.855 224.736L306.237 224.518C316.389 195.925 315.953 166.349 304.983 138.993L305.592 138.758C316.615 166.253 317.05 195.986 306.855 224.736Z"
		fill="white"
	/>
	<path
		d="M300.133 211.284L299.506 211.101C308.474 180.132 307.342 149.197 296.302 121.658L296.911 121.414C308.021 149.092 309.136 180.166 300.133 211.284Z"
		fill="white"
	/>
	<path
		d="M150.779 249.201L150.614 248.958C132.946 224.028 117.36 197.685 104.016 170.197L103.876 169.919L104.146 169.771C159.625 138.296 224.603 116.521 265.838 115.58H266.064L266.142 115.789C277.583 143.511 281.101 174.995 276.321 206.887L276.277 207.166H275.998C244.149 207.897 193.929 224.736 151.04 249.062L150.779 249.201ZM104.73 170.188C117.989 197.453 133.451 223.59 150.962 248.339C193.764 224.118 243.801 207.331 275.702 206.548C280.395 174.968 276.913 143.755 265.62 116.268C224.542 117.252 159.965 138.905 104.73 170.188Z"
		fill="white"
	/>
	<path
		d="M134.167 223.822L133.845 223.256C183.307 195.203 241.25 175.787 278.01 174.942V175.595C241.363 176.44 183.551 195.821 134.167 223.822Z"
		fill="white"
	/>
	<path
		d="M118.521 197.371L118.199 196.796C171.858 166.323 234.712 145.297 274.606 144.382V145.035C234.825 145.95 172.093 166.976 118.521 197.371Z"
		fill="white"
	/>
	<path
		d="M238.568 212.608C236.806 181.908 229.736 151.745 217.672 123.46L218.273 123.208C230.381 151.559 237.477 181.795 239.247 212.573L238.568 212.608Z"
		fill="white"
	/>
	<path
		d="M195.079 227.27C185.333 198.392 174.116 170.032 161.471 142.301L162.063 142.023C174.721 169.778 185.947 198.164 195.697 227.069L195.079 227.27Z"
		fill="white"
	/>
	<path
		d="M81.9355 317.627L81.4305 317.418C51.7583 305.055 28.6247 284.681 14.5199 258.448V258.318C13.536 247.687 21.5549 233.66 37.6883 217.753C53.8217 201.846 76.7464 185.303 104.146 169.771L104.451 169.597L104.599 169.91C117.929 197.367 133.497 223.681 151.145 248.584L151.354 248.88L151.04 249.054C108.212 273.345 80.438 300.702 81.8833 317.088L81.9355 317.627ZM15.138 258.196C29.0687 284.124 51.9237 304.341 81.2042 316.609C80.3335 299.709 107.324 273.154 150.413 248.697C132.897 223.949 117.432 197.812 104.172 170.546C49.094 201.811 13.3184 237.012 15.138 258.196Z"
		fill="white"
	/>
	<path
		d="M53.9001 302.234C53.0295 292.743 60.2038 280.232 74.5959 266.04C88.988 251.848 109.423 237.108 133.845 223.256L134.167 223.822C84.861 251.796 52.8641 283.279 54.5444 302.181L53.9001 302.234Z"
		fill="white"
	/>
	<path
		d="M31.4633 282.469C30.5404 272.178 38.3067 258.604 53.9091 243.22C69.5114 227.835 91.696 211.832 118.199 196.796L118.521 197.371C65.0014 227.722 30.2792 261.896 32.1163 282.417L31.4633 282.469Z"
		fill="white"
	/>
	<path
		d="M113.166 273.937C89.1534 253.912 69.2413 229.168 55.5892 202.369L56.1726 202.073C69.7811 228.793 89.6323 253.442 113.584 273.467L113.166 273.937Z"
		fill="white"
	/>
	<path
		d="M89.1446 297.732C60.848 281.912 38.498 259.545 24.5063 233.059L25.0897 232.755C39.0204 259.127 61.2746 281.407 89.4667 297.184L89.1446 297.732Z"
		fill="white"
	/>
	<path
		d="M110.041 332.046C99.9847 332.046 92.1835 330.348 87.1772 326.917C85.5362 325.879 84.1528 324.481 83.1317 322.829C82.1105 321.178 81.4782 319.316 81.2828 317.384C56.5298 307.023 36.3564 291.124 22.182 270.881L22.0862 270.812C17.4978 267.668 14.9467 263.463 14.4853 258.318L14.3373 256.733L15.0948 258.135C17.3696 262.368 19.8901 266.464 22.6434 270.402C36.9572 279.98 70.6345 278.491 112.844 266.362L113.106 266.284L113.219 266.528C126.227 292.561 141.62 312.203 157.745 323.339L158.311 323.731L157.649 323.922C138.964 329.294 122.7 332.046 110.041 332.046ZM23.6273 271.787C37.7147 291.351 57.5223 306.761 81.6833 316.818L81.8661 316.887V317.087C82.0302 318.959 82.6249 320.768 83.6036 322.372C84.5823 323.976 85.9186 325.332 87.508 326.334C98.4175 333.813 124.285 332.742 156.787 323.478C140.836 312.255 125.617 292.77 112.74 267.059C71.1308 278.996 38.8814 280.676 23.6273 271.787ZM15.3821 260.024C16.1074 263.663 18.112 266.921 21.0327 269.21C19.0244 266.232 17.1408 263.17 15.3821 260.024Z"
		fill="white"
	/>
	<path
		d="M86.9766 319.29C75.4142 319.29 66.4376 317.34 60.6912 313.396C58.7738 312.186 57.1628 310.549 55.9845 308.613C54.8062 306.676 54.0927 304.493 53.9 302.234L54.5443 302.182C54.7284 304.349 55.4123 306.443 56.5422 308.301C57.6722 310.16 59.2176 311.731 61.0569 312.891C73.7077 321.597 103.824 320.265 141.611 309.408L141.785 310.035C120.28 316.173 101.569 319.29 86.9766 319.29Z"
		fill="white"
	/>
	<path
		d="M67.3261 300.945C54.7885 300.945 45.0458 298.829 38.8205 294.554C34.3801 291.516 31.9074 287.45 31.4634 282.47L32.1164 282.409C32.543 287.189 34.9199 291.115 39.1862 294.015C52.9253 303.435 85.6014 302.016 126.584 290.253L126.766 290.88C103.459 297.567 83.1548 300.945 67.3261 300.945Z"
		fill="white"
	/>
	<path
		d="M91.9744 329.32C64.5218 319.405 41.7515 299.611 28.1111 273.806L28.6857 273.502C42.2558 299.162 64.9006 318.846 92.2008 328.711L91.9744 329.32Z"
		fill="white"
	/>
	<path
		d="M118.39 331.576C95.248 321.737 75.8234 302.765 62.2323 276.724L62.8069 276.419C76.3371 302.33 95.6398 321.189 118.643 330.975L118.39 331.576Z"
		fill="white"
	/>
	<path
		d="M290.713 166.402L290.513 165.905C276.382 131.505 248.477 101.702 211.909 81.9906L211.552 81.799L211.813 81.4943C218.9 73.1881 222.487 65.892 222.4 60.0759C213.647 53.8655 204 49.0216 193.79 45.7099L191.962 45.1179L193.886 45.0743C208.983 44.7261 218.674 48.1304 221.895 54.9041C222.6 56.4181 222.991 58.0588 223.045 59.7276C241.442 72.7876 256.261 91.9423 266.056 115.572C286.647 115.137 299.82 119.786 304.208 129.015C308.509 138.07 303.964 150.86 291.061 165.992L290.713 166.402ZM212.571 81.6075C248.912 101.302 276.704 130.939 290.931 165.191C303.398 150.442 307.795 138.053 303.642 129.32C299.359 120.309 286.29 115.781 265.881 116.26H265.655L265.568 116.06C255.886 92.5518 241.25 73.6148 223.071 60.5635C222.94 66.3708 219.405 73.5277 212.571 81.6075ZM195.828 45.7012C205.261 48.954 214.191 53.5143 222.357 59.2488C222.263 57.8368 221.905 56.4548 221.303 55.1741C218.352 48.9575 209.602 45.6925 195.958 45.6925L195.828 45.7012Z"
		fill="white"
	/>
	<path
		d="M272.489 133.264L271.993 132.837C284.435 118.262 288.841 106.003 284.748 97.3925C280.569 88.5901 267.814 84.1671 247.85 84.6286V83.9756C268.084 83.5141 281.057 88.059 285.358 97.1139C289.554 105.969 285.105 118.471 272.489 133.264Z"
		fill="white"
	/>
	<path
		d="M245.865 104.802L245.368 104.384C256.635 91.1845 260.623 80.0922 256.922 72.2998C253.144 64.3419 241.59 60.3455 223.523 60.7635V60.1105C241.868 59.6925 253.631 63.8108 257.532 72.0212C261.328 80.0835 257.297 91.4196 245.865 104.802Z"
		fill="white"
	/>
	<path
		d="M304.983 138.993C291.052 104.253 261.763 77.0625 222.487 62.4266L222.714 61.8171C262.164 76.514 291.592 103.835 305.593 138.758L304.983 138.993Z"
		fill="white"
	/>
	<path
		d="M296.302 121.658C282.267 86.6829 253.814 61.1724 216.201 49.8102L216.384 49.1833C254.205 60.6065 282.807 86.2563 296.92 121.449L296.302 121.658Z"
		fill="white"
	/>
	<path
		d="M104.164 170.511L104.016 170.197C87.3336 135.745 77.3819 105.429 75.9801 84.8721V84.6632L76.1542 84.5674C116.544 61.6166 163.856 45.7618 193.886 45.074H193.938H193.99C225.996 55.4262 251.62 80.5362 266.142 115.763L266.325 116.207H265.89C224.751 117.148 159.895 138.888 104.503 170.311L104.164 170.511ZM76.6505 84.994C78.0871 105.446 87.9692 135.493 104.451 169.597C159.642 138.34 224.176 116.686 265.359 115.615C250.879 80.7887 225.5 56.0182 193.842 45.7531C163.952 46.467 116.893 62.2 76.6505 84.994Z"
		fill="white"
	/>
	<path
		d="M90.1113 137.512L89.7892 136.938C143.997 106.186 207.555 84.898 247.832 83.9751V84.6281C207.643 85.551 144.249 106.804 90.1113 137.512Z"
		fill="white"
	/>
	<path
		d="M80.647 108.685L80.3248 108.119C129.448 80.2573 186.981 60.9721 223.497 60.1362V60.7892C187.095 61.6251 129.683 80.8668 80.647 108.685Z"
		fill="white"
	/>
	<path
		d="M217.638 123.46C202.532 88.4943 181.662 62.7923 158.876 51.0992L159.172 50.5159C182.097 62.2786 203.071 88.0938 218.238 123.208L217.638 123.46Z"
		fill="white"
	/>
	<path
		d="M161.471 142.301C145.59 107.535 130.11 79.9787 117.877 64.7508L118.39 64.3416C130.658 79.6479 146.165 107.248 162.063 142.057L161.471 142.301Z"
		fill="white"
	/>
	<path
		d="M15.2773 259.85L14.5199 258.448C-3.37233 225.154 -4.68704 186.278 10.8282 148.988C9.50482 133.081 35.1285 107.797 76.1282 84.5586L76.5809 84.2974V84.8198C77.974 105.333 87.8996 135.562 104.547 169.936L104.677 170.215L104.416 170.363C49.0853 201.707 13.1877 237.073 15.0771 258.3L15.2773 259.85ZM76.015 85.3509C36.034 108.11 10.1143 133.664 11.4899 149.014V149.092V149.171C-3.78154 185.817 -2.71933 223.987 14.4328 256.837C14.3109 246.389 22.321 232.929 37.7144 217.753C53.7434 201.95 76.6244 185.417 103.885 169.919C87.4033 135.876 77.5387 105.881 76.015 85.3509Z"
		fill="white"
	/>
	<path
		d="M2.15637 223.5C1.20734 213.104 9.04334 199.391 24.8372 183.841C40.6311 168.291 63.0159 152.131 89.7889 136.938L90.1111 137.513C36.034 168.177 0.954848 202.717 2.80066 223.447L2.15637 223.5Z"
		fill="white"
	/>
	<path
		d="M0.919872 186.557C0.0492061 177.128 7.18867 164.695 21.4763 150.607C35.7639 136.52 56.0679 121.875 80.3246 108.119L80.6468 108.685C31.6805 136.459 -0.107514 167.733 1.57287 186.496L0.919872 186.557Z"
		fill="white"
	/>
	<path
		d="M55.5896 202.368C38.246 168.308 32.9523 134.848 40.7883 108.136L41.4152 108.319C33.6924 134.866 38.9425 168.169 56.2165 202.072L55.5896 202.368Z"
		fill="white"
	/>
	<path
		d="M24.4719 233.06C6.70161 199.4 4.44658 162.954 18.1073 130.434L18.7081 130.687C5.11699 163.023 7.38943 199.269 25.0552 232.755L24.4719 233.06Z"
		fill="white"
	/>
	<path
		d="M51.5496 277.42C38.5853 277.42 28.5204 275.226 22.0862 270.812C17.5152 267.686 14.9642 263.507 14.4853 258.387C-3.38947 225.084 -4.66935 186.209 10.8633 148.918L11.3683 147.699L11.4902 149.014C11.6376 150.775 12.1916 152.478 13.1086 153.989C14.0257 155.5 15.2807 156.777 16.7752 157.721C27.0925 164.799 51.6627 163.728 82.493 154.865L82.8848 154.752V155.152C85.906 193.914 96.6675 233.512 113.193 266.598L113.376 266.946L112.992 267.059C88.9011 273.92 67.9181 277.42 51.5496 277.42ZM11.0026 150.303C-4.01635 187.071 -2.53622 225.328 15.1383 258.135V258.265C15.5823 263.202 18.0463 267.242 22.4606 270.272C36.6176 279.98 70.2515 278.552 112.47 266.467C96.0667 233.504 85.3575 194.149 82.3015 155.57C51.0097 164.512 27.0055 165.487 16.4182 158.226C15.0224 157.341 13.8221 156.18 12.8909 154.814C11.9597 153.449 11.3171 151.908 11.0026 150.285V150.303Z"
		fill="white"
	/>
	<path
		d="M38.3848 242.176C25.7166 242.176 15.8781 240.034 9.58315 235.715C5.09922 232.642 2.61783 228.532 2.15637 223.526L2.80066 223.474C3.236 228.297 5.63904 232.25 9.95754 235.202C23.8447 244.692 56.8603 243.238 98.2953 231.353L98.4695 231.98C74.9005 238.754 54.3876 242.176 38.3848 242.176Z"
		fill="white"
	/>
	<path
		d="M33.7702 203.5C22.2949 203.5 13.3705 201.559 7.65025 197.641C5.74773 196.438 4.14886 194.812 2.9784 192.889C1.80793 190.967 1.09751 188.8 0.902588 186.557L1.55559 186.496C1.7422 188.643 2.42433 190.718 3.54835 192.556C4.67236 194.395 6.20761 195.948 8.03334 197.092C20.5971 205.712 50.5044 204.415 88.0301 193.61L88.213 194.237C66.8555 200.401 48.2668 203.5 33.7702 203.5Z"
		fill="white"
	/>
	<path
		d="M28.1107 273.807C10.3926 240.721 7.77191 200.34 20.7448 160.124L21.3717 160.324C8.45103 200.375 11.0543 240.556 28.6853 273.511L28.1107 273.807Z"
		fill="white"
	/>
	<path
		d="M62.2321 276.723C44.9755 243.681 39.0637 203.039 45.6111 162.265L46.2554 162.37C39.769 202.978 45.6634 243.472 62.8503 276.427L62.2321 276.723Z"
		fill="white"
	/>
	<path
		d="M212.144 82.1121L211.909 81.9902C175.341 62.2871 134.55 54.9996 96.9808 61.5557L95.4658 61.8169L96.737 60.9462C127.454 40.3724 161.959 34.7392 193.938 45.074C209.018 44.7519 218.674 48.1388 221.895 54.9038C225.047 61.5296 221.73 70.8718 212.318 81.8945L212.144 82.1121ZM124.433 58.6042C153.879 58.6042 184.161 66.3705 211.987 81.3285C221.094 70.5845 224.316 61.5557 221.303 55.2086C218.204 48.6873 208.713 45.4049 193.895 45.7531H193.842H193.79C162.446 35.6099 128.612 40.9209 98.3826 60.7025C106.994 59.2869 115.706 58.5735 124.433 58.5693V58.6042Z"
		fill="white"
	/>
	<path
		d="M174.557 66.379L174.061 65.9611C180.608 58.2818 182.933 51.8476 180.8 47.355C178.667 42.8623 171.901 40.4419 161.41 40.677V40.024C172.197 39.7802 179.111 42.218 181.435 47.0677C183.76 51.9173 181.287 58.4995 174.557 66.379Z"
		fill="white"
	/>
	<path
		d="M135.621 59.4575L135.125 59.0396C138.52 55.0607 139.73 51.7434 138.607 49.4623C137.484 47.1812 134.019 45.9274 128.577 46.0493V45.3963C134.297 45.2744 137.98 46.5717 139.217 49.1837C140.453 51.7957 139.191 55.2783 135.621 59.4575Z"
		fill="white"
	/>
	<path
		d="M222.487 62.4261C183.212 47.7902 138.66 47.4768 97.0245 61.5555L96.8156 60.9373C138.608 46.8238 183.299 47.1372 222.714 61.808L222.487 62.4261Z"
		fill="white"
	/>
	<path
		d="M97.0592 61.5297L96.7806 60.9377C136.117 41.9484 178.623 37.7779 216.375 49.1837L216.192 49.8105C178.562 38.4484 136.257 42.6101 97.0592 61.5297Z"
		fill="white"
	/>
	<path
		d="M76.0153 85.3513V84.8376C75.2143 72.9878 77.2429 65.1518 82.049 61.5299C85.6275 58.8395 90.6251 58.6219 96.9113 60.8682C127.602 40.3553 162.081 34.7482 194.025 45.0917L195.854 45.6838H193.93C164.005 46.3716 116.815 62.2264 76.5029 85.0553L76.0153 85.3513ZM89.0753 59.9888C86.6765 59.9159 84.3214 60.6417 82.3799 62.0523C77.8263 65.474 75.8673 72.953 76.5638 84.2717C116.005 61.9826 161.941 46.4325 191.927 45.1352C160.644 35.645 127.036 41.4262 97.0245 61.5038L96.8852 61.5995L96.7285 61.5386C94.3076 60.5931 91.7427 60.0689 89.1449 59.9888H89.0753Z"
		fill="white"
	/>
	<path
		d="M77.9308 68.6691L77.6086 68.0944C106.341 51.7956 140.009 40.5204 161.375 40.0242V40.6772C140.122 41.1647 106.558 52.4137 77.9308 68.6691Z"
		fill="white"
	/>
	<path
		d="M84.8958 60.6937L84.5736 60.119C99.671 51.5604 117.354 45.6399 128.586 45.3787V46.0317C117.467 46.2842 99.906 52.1786 84.8958 60.6937Z"
		fill="white"
	/>
	<path
		d="M97.1636 61.4599L96.6847 61.0158C113.985 42.4445 136.161 38.7181 159.172 50.5156L158.876 51.0989C136.161 39.4494 114.246 43.1236 97.1636 61.4599Z"
		fill="white"
	/>
	<path
		d="M117.876 64.7514C110.72 55.8096 105.069 51.6304 101.552 52.6491C99.2442 53.3282 97.7989 56.2363 97.2417 61.3035L96.5974 61.2339C97.1808 55.8793 98.7828 52.7797 101.369 52.0222C105.217 50.9078 110.946 55.0522 118.39 64.3422L117.876 64.7514Z"
		fill="white"
	/>
	<path
		d="M10.9587 150.39L10.8368 149.075C10.1664 141.544 15.5558 131.897 25.7862 121.362C39.1948 101.811 56.4086 85.1662 76.398 72.4216C77.2687 67.3282 79.158 63.7149 82.0138 61.5295C85.627 58.8218 90.6769 58.6128 97.0328 60.9288L97.7554 61.19L97.0676 61.5295C90.1582 64.9041 83.454 68.6836 76.99 72.8482C76.4224 76.7981 76.3027 80.7995 76.6331 84.7763V84.9766L76.4502 85.081C54.849 97.3313 37.3138 110.409 25.9516 122.285C20.2504 130.761 15.3977 139.778 11.4637 149.206L10.9587 150.39ZM23.2787 125.14C15.7648 133.577 11.5595 141.291 11.4376 147.516C14.773 139.761 18.733 132.289 23.2787 125.175V125.14ZM76.2587 73.2922C57.5758 85.3005 41.3289 100.729 28.3721 118.767C39.6907 107.788 55.9896 95.9731 75.9627 84.6283C75.6624 80.8497 75.7616 77.05 76.2587 73.2922ZM89.1445 59.9884C86.7458 59.9155 84.3907 60.6413 82.4491 62.0519C79.8371 64.0196 78.0958 67.3282 77.2251 71.9427C83.318 68.0385 89.6226 64.4749 96.1099 61.2683C93.8721 60.4696 91.5201 60.0374 89.1445 59.9884Z"
		fill="white"
	/>
	<path
		d="M31.1149 114.083C30.105 102.764 48.3541 84.6894 77.6085 68.0945L77.9307 68.6691C49.338 84.8809 30.8102 103.113 31.7679 114.031L31.1149 114.083Z"
		fill="white"
	/>
	<path
		d="M60.108 84.3933C59.5769 78.3857 69.1803 68.8519 84.5737 60.1191L84.8958 60.6938C69.99 69.1654 60.256 78.6817 60.761 84.3324L60.108 84.3933Z"
		fill="white"
	/>
	<path
		d="M41.3714 108.284L40.7445 108.101C48.5805 81.3458 68.4665 64.5681 96.8763 60.8765L96.9634 61.5208C68.8235 65.2211 49.0942 81.8334 41.3714 108.284Z"
		fill="white"
	/>
	<path
		d="M18.7077 130.686L18.1069 130.434C31.7677 97.932 59.7248 73.2486 96.8151 60.9287L97.0241 61.5469C60.1079 73.8059 32.2988 98.3586 18.7077 130.686Z"
		fill="white"
	/>
	<path
		d="M37.9063 163.049C28.4509 163.049 21.1111 161.447 16.4095 158.226C14.8384 157.233 13.518 155.89 12.5514 154.303C11.5847 152.716 10.9981 150.926 10.8373 149.075V148.988V148.918C26.3961 111.636 56.9303 80.4229 96.7807 60.9461L97.7211 60.4846L97.2074 61.3553C85.018 83.061 79.8985 116.347 82.911 155.074V155.335L82.6585 155.413C65.1146 160.524 49.8344 163.049 37.9063 163.049ZM11.499 149.118C11.6641 150.859 12.2255 152.538 13.1401 154.027C14.0546 155.517 15.2981 156.777 16.7752 157.712C27.0665 164.773 51.5235 163.728 82.2406 154.926C79.2978 116.721 84.2257 83.8011 96.1713 62.017C56.9304 81.3806 26.8575 112.281 11.499 149.092V149.118Z"
		fill="white"
	/>
	<path
		d="M50.4609 124.113C43.7133 124.113 38.4719 122.972 35.1198 120.63C33.9892 119.917 33.0392 118.951 32.3444 117.809C31.6495 116.667 31.2286 115.38 31.1147 114.048L31.7677 113.996C31.8753 115.229 32.2669 116.422 32.9118 117.479C33.5568 118.536 34.4377 119.43 35.4855 120.09C42.7991 125.097 60.2385 124.33 82.1445 118.035L82.3186 118.662C69.8333 122.302 58.9499 124.113 50.4609 124.113Z"
		fill="white"
	/>
	<path
		d="M70.4167 89.7914C66.847 89.7914 64.0609 89.1819 62.276 87.963C61.6654 87.5737 61.1523 87.0494 60.7765 86.4305C60.4006 85.8115 60.1719 85.1145 60.108 84.3932L60.761 84.3323C60.8214 84.9522 61.0232 85.55 61.3507 86.0798C61.6782 86.6096 62.1228 87.0572 62.6504 87.3883C66.4465 90.0003 75.5449 89.5824 87.029 86.2913L87.2119 86.9182C80.6122 88.8423 74.8919 89.7914 70.4167 89.7914Z"
		fill="white"
	/>
	<path
		d="M21.3719 160.324L20.745 160.124C33.7092 119.951 60.6999 84.7763 96.7367 60.9636L97.1024 61.5034C61.1787 85.1943 34.2926 120.291 21.3719 160.324Z"
		fill="white"
	/>
	<path
		d="M46.2121 162.396L45.6113 162.265C52.1239 121.536 70.2773 85.5598 96.7455 60.9722L97.1896 61.451C70.7823 85.969 52.6986 121.814 46.2121 162.396Z"
		fill="white"
	/>
	<path
		d="M109.954 331.932C102.797 331.932 96.763 331.062 92.1311 329.381L90.6248 328.807C89.5016 328.38 88.3001 327.936 87.325 327.518C85.7143 326.865 83.6334 325.977 82.1619 325.306C77.4429 323.182 73.8732 321.275 72.6978 320.64C70.643 319.543 67.4738 317.732 63.7473 315.416C58.889 312.334 55.3454 309.652 55.3106 309.626C51.3491 306.596 50.2869 305.786 47.4224 303.313C43.069 299.604 40.0914 296.522 40.0565 296.496L38.9943 295.39C38.202 294.572 37.3488 293.701 36.6696 292.97C35.5117 291.725 34.2056 290.306 33.2566 289.183C31.3499 286.893 28.9033 283.837 27.162 281.582C26.4567 280.676 25.5861 279.457 24.846 278.395L24.1843 277.455C23.479 276.453 20.8932 272.605 18.821 269.035C17.1319 266.136 16.1219 264.386 13.5186 259.092C13.1268 258.283 11.7773 255.453 10.8457 253.181C10.628 252.632 10.3842 252.031 10.1317 251.439C9.58321 250.081 9.01728 248.688 8.58195 247.512C8.26851 246.642 7.19759 243.751 6.47493 241.418C5.18635 237.256 3.86294 231.788 3.2883 229.629C2.84426 227.792 2.33927 225.276 2.03454 223.282C1.4599 219.538 0.833019 215.263 0.563113 212.007C-0.0289404 205.041 -0.0115265 200.514 0.00588682 199.295C0.0842468 194.463 0.127779 191.799 0.606645 186.444C0.876552 183.51 1.42507 179.479 2.28703 174.046C2.60918 172.026 3.1577 169.379 3.64527 167.289C3.93259 166.018 4.32439 164.494 4.69877 163.023C4.8642 162.361 5.02963 161.726 5.16894 161.151C5.67392 159.122 6.50976 156.45 7.17147 154.342C9.4441 147.258 12.1989 140.338 15.4167 133.629C17.158 130.034 19.5523 125.515 21.3546 122.38C23.6183 118.436 26.7528 113.674 27.6582 112.315C29.4779 109.582 32.2554 105.777 34.7281 102.642C35.9122 101.136 37.34 99.3512 38.4284 98.1062C39.717 96.5825 41.5192 94.5626 42.7121 93.2217C44.4011 91.3324 46.8825 88.7465 48.9025 86.7875L49.2421 86.4654C50.2433 85.4902 51.4884 84.28 52.4635 83.3745C54.5879 81.4242 56.1987 79.9789 57.3828 79.0212C61.1005 75.8694 62.6068 74.5634 67.9178 70.6715C69.0062 69.8792 70.3992 68.9302 71.4005 68.2162C73.1418 67.0147 75.5362 65.4649 77.2601 64.3679C78.3658 63.6626 82.4841 61.1812 85.8623 59.3528C87.9954 58.221 91.5564 56.3142 96.4844 54.1288C99.967 52.579 102.84 51.4385 104.66 50.7506C108.5 49.3053 110.485 48.661 113.776 47.5988C115.038 47.1896 118.39 46.2058 120.793 45.5789C123.902 44.7692 123.902 44.7692 128.917 43.6634C132.547 42.8537 139.199 41.7654 143.457 41.2778C145.947 40.9905 151.763 40.3201 159.599 40.1285C165.937 39.9805 171.161 40.233 173.712 40.3984C176.264 40.5639 179.711 40.8686 182.75 41.1907C184.491 41.3823 187.034 41.6957 188.949 42.0614L189.907 42.2268C192.171 42.6186 194.992 43.0975 197.133 43.5241C198.265 43.7505 201.138 44.3425 203.359 44.9346L205.283 45.4309C207.155 45.9185 209.279 46.467 210.942 46.9894C214.425 48.0777 219.17 49.6971 223.088 51.125C223.149 51.125 229.183 53.441 235.713 56.6538C243.052 60.2757 247.989 63.4101 248.041 63.445L249.095 64.1154C250.479 64.986 252.046 65.9873 253.274 66.8144C255.146 68.0769 257.27 69.5396 258.803 70.7324C261.798 73.0658 265.637 76.1828 268.38 78.4988C269.904 79.7961 271.819 81.6506 273.221 83.0088C274.092 83.8795 276.26 85.9778 277.792 87.693C280.151 90.305 283.321 94.0576 285.698 96.9743C286.89 98.437 288.31 100.457 289.555 102.198C290.303 103.261 291.2 104.619 291.992 105.82L292.95 107.266C292.95 107.266 296.032 111.95 299.393 118.506C302.31 124.183 304.269 129.111 304.617 130.042C305.714 132.846 307.229 136.755 307.987 139.454C308.857 142.301 309.893 146.08 310.599 148.866C310.903 150.024 311.26 151.643 311.696 153.82C312 155.37 312.383 157.303 312.566 158.818C312.984 161.726 313.437 165.618 313.777 168.5C313.881 169.475 314.255 174.298 314.308 178.739C314.308 181.725 314.203 185.747 314.09 188.586C314.046 189.665 313.942 190.963 313.829 192.216C313.829 192.774 313.733 193.305 313.698 193.792C313.698 193.836 313.272 198.686 312.366 203.988C312.122 205.442 311.748 207.645 311.382 209.264C310.72 212.268 309.763 216.229 309.005 219.12C309.005 219.164 307.83 223.569 305.618 229.768C303.877 234.6 300.499 239.999 295.553 245.797L294.474 247.06L294.996 245.484C303.163 220.574 301.605 193.096 290.486 166.027C276.381 131.505 248.477 101.702 211.909 81.9901C175.341 62.2783 134.654 55.0517 97.1287 61.5295C84.9394 83.2439 79.8982 116.469 82.9107 155.117C85.9232 193.766 96.6934 233.477 113.219 266.563C126.226 292.596 141.62 312.238 157.744 323.374L158.31 323.765L157.649 323.957C139.234 329.216 122.796 331.932 109.954 331.932ZM163.526 40.6596C162.281 40.6596 160.975 40.6596 159.608 40.7032C151.772 40.8947 146.008 41.5738 143.535 41.8437C139.295 42.3313 132.669 43.4196 129.056 44.2207C124.05 45.3264 124.05 45.3264 120.95 46.1361C118.564 46.7543 115.23 47.7381 113.985 48.1386C110.702 49.2009 108.717 49.88 104.904 51.2818C103.084 51.9696 100.202 53.1102 96.7543 54.6425C91.8525 56.8366 88.3001 58.7347 86.1757 59.8665C82.7714 61.6775 78.7141 64.1502 77.6258 64.8467C75.8844 65.9438 73.551 67.4587 71.7749 68.6864C70.7823 69.3568 69.3893 70.3406 68.2922 71.1329C63.0682 75.0074 61.4923 76.3047 57.792 79.4391C56.6079 80.4404 55.0059 81.8683 52.8901 83.7924C51.915 84.6631 50.6786 85.8907 49.6774 86.8572L49.3378 87.188C47.3527 89.1731 44.88 91.7416 43.1996 93.6222C42.0068 94.9631 40.2045 96.9743 38.9247 98.4893C37.8712 99.7343 36.4258 101.51 35.2417 103.008C32.7778 106.134 30.0177 109.921 28.2068 112.646C27.3361 114.005 24.1756 118.741 21.9206 122.668C20.127 125.793 17.7501 130.295 16.0087 133.882C12.7994 140.56 10.056 147.451 7.79835 154.508C7.12793 156.598 6.3008 159.262 5.80452 161.273C5.66521 161.848 5.49979 162.483 5.33436 163.145C4.95998 164.616 4.56818 166.131 4.28956 167.402C3.8194 169.475 3.24476 172.113 2.93132 174.115C2.06066 179.505 1.52084 183.545 1.25964 186.461C0.780778 191.799 0.737246 194.454 0.658886 199.269C0.658886 200.479 0.658886 204.972 1.20741 211.92C1.48602 215.159 2.07807 219.407 2.67883 223.143C2.98356 225.093 3.47984 227.618 3.92388 229.437C4.45499 231.588 5.81323 237.038 7.09311 241.191C7.81576 243.516 8.87797 246.415 9.19141 247.286C9.62675 248.453 10.1927 249.846 10.7325 251.195C10.985 251.814 11.2375 252.414 11.4551 252.937C12.0559 254.46 13.0485 256.654 14.0671 258.805C16.6791 264.073 17.663 265.823 19.3434 268.713C21.4069 272.257 23.9753 276.088 24.6719 277.08L25.3423 278.021C26.0736 279.074 26.9182 280.267 27.6147 281.181C29.356 283.427 31.8113 286.475 33.7094 288.756C34.641 289.879 35.9383 291.29 37.0876 292.526C37.7667 293.249 38.6199 294.119 39.4122 294.929L40.4744 296.026C40.4744 296.026 43.5131 299.117 47.788 302.8C50.6438 305.255 51.706 306.065 55.624 309.069C55.685 309.112 59.2025 311.776 64.0347 314.85C67.7002 317.174 70.9042 318.968 72.9416 320.074C74.117 320.701 77.6693 322.607 82.3622 324.723C83.8336 325.385 85.9058 326.273 87.5165 326.926C88.483 327.318 89.6758 327.797 90.7989 328.206L92.2965 328.78C105.034 333.465 128.499 331.54 156.726 323.487C140.723 312.229 125.46 292.656 112.557 266.824C96.0142 233.678 85.2093 194.027 82.1794 155.178C79.1494 116.329 84.2602 82.9131 96.554 61.0855L96.6324 60.9461H96.7891C134.498 54.3987 175.463 61.6775 212.135 81.4503C248.807 101.223 276.852 131.148 291.035 165.687C301.979 192.338 303.712 219.381 296.067 244.047C300.421 238.823 303.372 233.904 304.957 229.498C307.142 223.351 308.309 218.946 308.317 218.911C309.075 216.02 310.059 212.068 310.694 209.073C311.051 207.462 311.426 205.276 311.669 203.849C312.54 198.581 312.993 193.758 312.993 193.714C313.036 193.226 313.08 192.695 313.124 192.138C313.237 190.893 313.341 189.604 313.385 188.534C313.498 185.704 313.629 181.699 313.602 178.712C313.55 174.298 313.176 169.51 313.08 168.543C312.767 165.67 312.288 161.787 311.87 158.887C311.652 157.425 311.278 155.466 310.999 153.925C310.564 151.757 310.216 150.146 309.919 149.005C309.197 146.219 308.178 142.449 307.307 139.611C306.506 136.938 305.035 133.046 303.947 130.251C303.59 129.32 301.631 124.418 298.723 118.776C295.379 112.255 292.349 107.64 292.323 107.596C292.019 107.152 291.696 106.665 291.366 106.151C290.573 104.958 289.676 103.6 288.936 102.547C287.7 100.805 286.324 98.8201 285.097 97.3226C282.737 94.4146 279.568 90.6968 277.261 88.0674C275.737 86.3261 273.569 84.2452 272.716 83.4093C271.323 82.0685 269.416 80.2227 267.91 78.9341C265.202 76.6268 261.371 73.5099 258.376 71.1852C256.861 70.0011 254.754 68.5732 252.891 67.2933C251.672 66.4749 250.113 65.4823 248.729 64.6029L247.684 63.8803C247.684 63.8803 242.73 60.7372 235.417 57.1239C228.895 53.9112 222.914 51.6474 222.853 51.63C218.944 50.2021 214.146 48.5827 210.733 47.5031C209.088 46.9807 206.972 46.4321 205.109 45.9533L203.202 45.4483C201.008 44.8649 198.143 44.2816 197.02 44.0552C194.887 43.6286 192.075 43.1846 189.811 42.7579L188.853 42.5925C186.955 42.2617 184.43 41.9482 182.698 41.7654C179.668 41.4432 176.133 41.1298 173.686 40.9731C171.675 40.8425 168.044 40.6596 163.526 40.6596Z"
		fill="white"
	/>
	<path
		d="M175.72 234.374L175.697 233.943H175.266H150.331H149.858L149.877 234.416C150.33 245.985 154.589 255.59 162.655 263.201L162.66 263.206C170.867 270.729 183.581 274.445 200.706 274.445C216.98 274.445 229.267 271.42 237.496 265.299C245.749 259.159 249.852 249.954 249.852 237.767C249.852 228.014 246.97 220.317 241.162 214.737C235.364 209.168 226.704 205.761 215.249 204.463C215.248 204.463 215.247 204.463 215.247 204.462L191.832 201.599L191.832 201.599L191.822 201.598C187.387 201.154 184.193 199.886 182.162 197.858C180.121 195.707 179.09 192.961 179.09 189.583C179.09 185.234 180.818 181.895 184.284 179.512L184.284 179.512L184.292 179.506C187.778 177.001 192.836 175.717 199.527 175.717C206.658 175.717 212.106 177.222 215.929 180.171C219.755 183.122 222.003 187.22 222.663 192.503L222.713 192.901H223.114H248.218H248.702L248.671 192.418C247.99 181.517 243.611 172.694 235.535 165.983C227.446 159.261 215.417 155.938 199.527 155.938C184.198 155.938 172.457 159.092 164.37 165.47L164.37 165.47L164.368 165.472C156.391 171.853 152.403 180.411 152.403 191.099C152.403 200.4 155.072 207.825 160.452 213.319L160.455 213.323C165.938 218.805 173.737 222.148 183.8 223.392C183.801 223.392 183.802 223.392 183.803 223.393L208.565 226.593C208.565 226.593 208.565 226.593 208.566 226.593C213.569 227.26 217.225 228.754 219.599 231.02L219.599 231.02L219.607 231.028C221.961 233.168 223.165 236.233 223.165 240.295C223.165 244.883 221.481 248.391 218.126 250.88C214.766 253.374 209.106 254.666 201.043 254.666C192.678 254.666 186.458 252.825 182.305 249.219C178.255 245.606 176.051 240.674 175.72 234.374ZM362.946 159.257V158.802H362.491H336.882H336.428V159.257V210.757L292.244 158.962L292.108 158.802H291.898H258.539H257.507L258.204 159.564L301.258 206.637L257.324 269.687L257.242 269.804V269.947V271.294V271.749H257.697H288.36H288.603L288.738 271.547L319.08 226.035L336.428 245.02V271.294V271.749H336.882H362.491H362.946V271.294V159.257Z"
		fill="url(#paint1_linear_100_111215)"
		stroke="white"
		stroke-width="0.909259"
	/>
	<defs>
		<radialGradient
			id="paint0_radial_100_111215"
			cx="0"
			cy="0"
			r="1"
			gradientUnits="userSpaceOnUse"
			gradientTransform="translate(246.712 244.288) rotate(90) scale(244.288)"
		>
			<stop stop-color="#0E0E0E" />
			<stop offset="1" stop-color="#0E0E0E" stop-opacity="0" />
		</radialGradient>
		<linearGradient
			id="paint1_linear_100_111215"
			x1="164.273"
			y1="227.315"
			x2="351.58"
			y2="193.975"
			gradientUnits="userSpaceOnUse"
		>
			<stop stop-color="#150E13" />
			<stop offset="1" stop-color="#120F11" />
		</linearGradient>
	</defs>
</svg>