<?xml version="1.0" encoding="UTF-8" standalone="no"?>
<!-- Created with Inkscape (http://www.inkscape.org/) -->

<svg
   width="100mm"
   height="100mm"
   viewBox="0 0 100 100"
   version="1.1"
   id="svg5"
   inkscape:version="1.1.1 (3bf5ae0d25, 2021-09-20)"
   sodipodi:docname="sk2.svg"
   inkscape:export-filename="D:\sklogo\sk2mini.png"
   inkscape:export-xdpi="38.099998"
   inkscape:export-ydpi="38.099998"
   xmlns:inkscape="http://www.inkscape.org/namespaces/inkscape"
   xmlns:sodipodi="http://sodipodi.sourceforge.net/DTD/sodipodi-0.dtd"
   xmlns="http://www.w3.org/2000/svg"
   xmlns:svg="http://www.w3.org/2000/svg">
  <sodipodi:namedview
     id="namedview7"
     pagecolor="#ffffff"
     bordercolor="#666666"
     borderopacity="1.0"
     inkscape:pageshadow="2"
     inkscape:pageopacity="1"
     inkscape:pagecheckerboard="0"
     inkscape:document-units="mm"
     showgrid="false"
     inkscape:zoom="1"
     inkscape:cx="407.5"
     inkscape:cy="161.5"
     inkscape:window-width="1920"
     inkscape:window-height="1017"
     inkscape:window-x="1912"
     inkscape:window-y="-8"
     inkscape:window-maximized="1"
     inkscape:current-layer="layer1" />
  <defs
     id="defs2">
    <rect
       x="175.39371"
       y="461.42035"
       width="39.126286"
       height="70.157478"
       id="rect3258" />
  </defs>
  <g
     inkscape:label="Calque 1"
     inkscape:groupmode="layer"
     id="layer1">
    <text
       xml:space="preserve"
       transform="scale(0.26458333)"
       id="text3256"
       style="font-style:normal;font-weight:normal;font-size:40px;line-height:1.25;font-family:sans-serif;white-space:pre;shape-inside:url(#rect3258);fill:#000000;fill-opacity:1;stroke:none" />
    <g
       aria-label="S"
       id="text1178"
       style="font-weight:bold;font-size:50.8px;line-height:1.25;font-family:Tahoma;-inkscape-font-specification:'Tahoma Bold';stroke-width:0.264583"
       transform="matrix(1.0137766,0,0,0.99282979,18,31.000799)">
      <path
         d="m 13.386317,38.273631 c -2.827734,0 -5.3164718,-0.272851 -7.4662113,-0.818554 C 3.7869026,36.909374 -0.01648272,36.280988 5.3745681e-5,35.123436 L 0.03312666,27.136327 C 0.01824447,26.735594 0.39230685,26.60805 0.8103402,26.640233 c 1.8520833,1.570963 3.8943358,2.778125 6.1267577,3.621484 2.2324217,0.843359 4.3986981,1.265039 6.4988281,1.265039 0.529167,0 1.223698,-0.05788 2.083594,-0.173632 0.876433,-0.115755 1.579232,-0.297657 2.108399,-0.545704 0.644921,-0.281119 1.190624,-0.669726 1.637109,-1.16582 0.446484,-0.51263 0.669726,-1.182357 0.669726,-2.00918 0,-0.926041 -0.363802,-1.67845 -1.091406,-2.257226 C 18.115744,24.796418 17.24758,24.374738 16.238856,24.110155 14.982085,23.779426 13.634364,23.465233 12.195692,23.167577 10.773557,22.86992 9.4423713,22.506118 8.2021369,22.076171 5.3413296,21.067447 3.2908088,19.711457 2.0505745,18.008202 0.81034019,16.304947 0.19022302,14.171744 0.19022302,11.608593 c 0,-3.45612 1.46347648,-6.2507815 4.39042958,-8.3839846 C 7.5076057,1.0748688 11.162163,-9.611249e-7 15.544325,-9.611249e-7 c 2.199349,0 4.382161,0.2232421811249 6.548437,0.6697265511249 2.182813,0.44648431 5.630824,1.28392591 5.713589,2.88650201 l 0.04677,6.7497954 c 0.0024,0.528071 -0.279693,0.599718 -0.72501,0.608038 C 25.86164,10.058129 24.081986,8.7623301 22.092762,7.9374989 20.124923,7.1272125 18.099207,6.7220693 16.015614,6.7220693 c -0.810287,0 -1.537891,0.057878 -2.182813,0.1736328 -0.644921,0.1157552 -1.322916,0.3389974 -2.033984,0.6697265 -0.578776,0.2645833 -1.083138,0.6614583 -1.513086,1.190625 -0.4134118,0.5126302 -0.6201175,1.0914063 -0.6201175,1.7363284 0,0.942578 0.330729,1.694987 0.9921875,2.257226 0.677995,0.545703 1.976107,1.041797 3.894336,1.488281 1.240235,0.28112 2.43086,0.553972 3.571875,0.818555 1.157552,0.264583 2.389518,0.628385 3.695899,1.091406 2.563151,0.926042 4.464843,2.174545 5.705078,3.745508 1.256771,1.554427 1.885156,3.613216 1.885156,6.176367 0,3.671094 -1.44694,6.622852 -4.34082,8.855274 -2.877344,2.232421 -6.77168,3.348632 -11.683008,3.348632 z"
         id="path21752"
         sodipodi:nodetypes="sccccsscccsscccsscscccccssccscccccscs" />
    </g>
    <g
       aria-label="K"
       transform="matrix(-1.0137766,0,0,0.97468574,16.927087,32.000784)"
       id="text18697"
       style="font-weight:bold;font-size:50.8px;line-height:1.25;-inkscape-font-specification:'sans-serif Bold';stroke-width:0.264583">
      <path
         d="m -30.777898,36.934 h -9.821691 c -0.518345,0.0026 -0.749524,-0.200688 -1.015016,-0.512808 L -54.661844,18.466687 v 6.387608 L -54.662,35.934 c -0.02301,0.529551 -0.386263,0.988338 -1,1.000177 L -63.187,36.934 c -0.658591,0.0065 -1.025304,-0.486238 -1,-1 V 1 c -0.02856,-0.69522849 0.323104,-1.01022988 1,-1.0000008670613 L -55.662,0 c 0.500806,0.01513616 1.001231,0.30549978 1,1 l 1.56e-4,17.466687 13.047239,-17.95405852 C -41.291082,0.0806136 -41.146014,0.01917166 -40.599589,0 h 9.821691 c 0.221239,0.00391363 0.234026,0.13414226 0.05425,0.33669773 l -14.140347,18.12998927 14.140347,17.90525 c 0.135577,0.187683 0.136153,0.554212 -0.05425,0.562063 z"
         id="path21773"
         sodipodi:nodetypes="ccccccccccccccccccccc" />
    </g>
    <circle
       style="fill:none;fill-opacity:1;stroke:#000000;stroke-width:9.86006;stroke-miterlimit:4;stroke-dasharray:none;stroke-opacity:1"
       id="path25269"
       cx="50"
       cy="50"
       r="45.069969" />
  </g>
</svg>
