<?xml version="1.0" encoding="UTF-8" standalone="no"?>
<!-- Created with Inkscape (http://www.inkscape.org/) -->

<svg
   width="276mm"
   height="100mm"
   viewBox="0 0 276 100"
   version="1.1"
   id="svg5"
   inkscape:version="1.1.2 (0a00cf5339, 2022-02-04)"
   sodipodi:docname="skiplabs.svg"
   inkscape:export-filename="D:\sklogo\skiplabs2mini.png"
   inkscape:export-xdpi="38.099998"
   inkscape:export-ydpi="38.099998"
   xmlns:inkscape="http://www.inkscape.org/namespaces/inkscape"
   xmlns:sodipodi="http://sodipodi.sourceforge.net/DTD/sodipodi-0.dtd"
   xmlns="http://www.w3.org/2000/svg"
   xmlns:svg="http://www.w3.org/2000/svg">
  <sodipodi:namedview
     id="namedview7"
     pagecolor="#ffffff"
     bordercolor="#666666"
     borderopacity="1.0"
     inkscape:pageshadow="2"
     inkscape:pageopacity="1"
     inkscape:pagecheckerboard="0"
     inkscape:document-units="mm"
     showgrid="false"
     inkscape:zoom="0.5"
     inkscape:cx="90"
     inkscape:cy="367"
     inkscape:window-width="1728"
     inkscape:window-height="946"
     inkscape:window-x="0"
     inkscape:window-y="0"
     inkscape:window-maximized="1"
     inkscape:current-layer="layer1"
     objecttolerance="20" />
  <defs
     id="defs2">
    <rect
       x="175.39371"
       y="461.42035"
       width="39.126286"
       height="70.157478"
       id="rect3258" />
  </defs>
  <g
     inkscape:label="Calque 1"
     inkscape:groupmode="layer"
     id="layer1">
    <text
       xml:space="preserve"
       transform="scale(0.26458333)"
       id="text3256"
       style="font-style:normal;font-weight:normal;font-size:40px;line-height:1.25;font-family:sans-serif;white-space:pre;shape-inside:url(#rect3258);fill:#000000;fill-opacity:1;stroke:none" />
    <g
       aria-label="S"
       id="text1178"
       style="font-weight:bold;font-size:50.8px;line-height:1.25;font-family:Tahoma;-inkscape-font-specification:'Tahoma Bold';stroke-width:0.264583;fill:#40514e;fill-opacity:1"
       transform="matrix(1.0137766,0,0,0.99282979,18,31.000799)">
      <path
         d="m 13.386317,38.273631 c -2.827734,0 -5.3164718,-0.272851 -7.4662113,-0.818554 C 3.7869026,36.909374 -0.01648272,36.280988 5.3745681e-5,35.123436 L 0.03312666,27.136327 C 0.01824447,26.735594 0.39230685,26.60805 0.8103402,26.640233 c 1.8520833,1.570963 3.8943358,2.778125 6.1267577,3.621484 2.2324217,0.843359 4.3986981,1.265039 6.4988281,1.265039 0.529167,0 1.223698,-0.05788 2.083594,-0.173632 0.876433,-0.115755 1.579232,-0.297657 2.108399,-0.545704 0.644921,-0.281119 1.190624,-0.669726 1.637109,-1.16582 0.446484,-0.51263 0.669726,-1.182357 0.669726,-2.00918 0,-0.926041 -0.363802,-1.67845 -1.091406,-2.257226 C 18.115744,24.796418 17.24758,24.374738 16.238856,24.110155 14.982085,23.779426 13.634364,23.465233 12.195692,23.167577 10.773557,22.86992 9.4423713,22.506118 8.2021369,22.076171 5.3413296,21.067447 3.2908088,19.711457 2.0505745,18.008202 0.81034019,16.304947 0.19022302,14.171744 0.19022302,11.608593 c 0,-3.45612 1.46347648,-6.2507815 4.39042958,-8.3839846 C 7.5076057,1.0748688 11.162163,-9.611249e-7 15.544325,-9.611249e-7 c 2.199349,0 4.382161,0.2232421811249 6.548437,0.6697265511249 2.182813,0.44648431 5.630824,1.28392591 5.713589,2.88650201 l 0.04677,6.7497954 c 0.0024,0.528071 -0.279693,0.599718 -0.72501,0.608038 C 25.86164,10.058129 24.081986,8.7623301 22.092762,7.9374989 20.124923,7.1272125 18.099207,6.7220693 16.015614,6.7220693 c -0.810287,0 -1.537891,0.057878 -2.182813,0.1736328 -0.644921,0.1157552 -1.322916,0.3389974 -2.033984,0.6697265 -0.578776,0.2645833 -1.083138,0.6614583 -1.513086,1.190625 -0.4134118,0.5126302 -0.6201175,1.0914063 -0.6201175,1.7363284 0,0.942578 0.330729,1.694987 0.9921875,2.257226 0.677995,0.545703 1.976107,1.041797 3.894336,1.488281 1.240235,0.28112 2.43086,0.553972 3.571875,0.818555 1.157552,0.264583 2.389518,0.628385 3.695899,1.091406 2.563151,0.926042 4.464843,2.174545 5.705078,3.745508 1.256771,1.554427 1.885156,3.613216 1.885156,6.176367 0,3.671094 -1.44694,6.622852 -4.34082,8.855274 -2.877344,2.232421 -6.77168,3.348632 -11.683008,3.348632 z"
         id="path21752"
         sodipodi:nodetypes="sccccsscccsscccsscscccccssccscccccscs"
         style="fill:#40514e;fill-opacity:1" />
    </g>
    <circle
       style="fill:none;fill-opacity:1;stroke:#40514e;stroke-width:9.86006;stroke-miterlimit:4;stroke-dasharray:none;stroke-opacity:1"
       id="path25269"
       cx="50"
       cy="50"
       r="45.069969" />
    <g
       id="g3325"
       style="fill:#40514e;fill-opacity:1">
      <path
         d="m 112.22498,68.999629 h -7.277 c -0.5441,-0.0062 -0.99642,-0.494249 -1,-1.02885 V 32.028926 c 0.0123,-0.57709 0.41208,-1.026029 1,-1.02885 h 7.277 c 0.63043,-0.0064 0.96107,0.383546 1,1.02885 4e-5,8.24306 -4e-5,27.698794 0,35.941853 -0.01,0.731706 -0.49731,1.029348 -1,1.02885 z"
         id="path6185"
         style="font-weight:bold;font-size:50.8px;line-height:1.25;font-family:Tahoma;-inkscape-font-specification:'Tahoma Bold';stroke-width:0.268372;fill:#40514e;fill-opacity:1"
         sodipodi:nodetypes="ccccccccc" />
      <path
         d="m 145.70266,42.994695 c 0,1.769408 -0.27285,3.453748 -0.81855,5.05302 -0.54571,1.599273 -1.33119,2.934836 -2.35645,4.006689 -0.62838,0.663528 -1.32291,1.276016 -2.08359,1.837463 -0.74414,0.561446 -1.57096,1.037824 -2.48047,1.429136 -0.90951,0.391312 -1.90169,0.697556 -2.97656,0.918732 -1.05833,0.221176 -2.24896,0.331764 -3.57188,0.331764 h -4.86171 l 6e-5,11.39928 c -0.003,0.565786 -0.38585,1.037383 -1,1.02911 h -7.277 c -0.68259,-0.0076 -1.01149,-0.463266 -1,-1.02911 V 32.028926 c -0.008,-0.676423 0.36909,-1.029353 1,-1.028776 h 13.33709 c 2.13321,0 3.96875,0.204163 5.50664,0.612488 1.55443,0.391312 2.96003,1.020813 4.2168,1.888503 1.38906,0.952757 2.46393,2.228773 3.22461,3.828046 0.76067,1.582259 1.14101,3.470761 1.14101,5.665508 z m -9.525,0.229683 c 0,-1.071853 -0.24805,-1.990584 -0.74414,-2.756194 -0.49609,-0.782622 -1.0914,-1.318548 -1.78593,-1.607779 -0.87643,-0.391312 -1.71979,-0.612488 -2.53008,-0.663528 -0.79375,-0.06806 -1.87689,-0.102082 -3.24942,-0.102082 h -1.31464 v 11.382057 h 0.64492 c 0.87643,0 1.70326,-0.0085 2.48047,-0.02553 0.77721,-0.01702 1.45521,-0.07657 2.03398,-0.178642 0.49609,-0.08507 1.01699,-0.246696 1.5627,-0.484886 0.56223,-0.255203 0.99218,-0.535926 1.28984,-0.842169 0.62839,-0.629501 1.05007,-1.284523 1.26504,-1.965064 0.23151,-0.680542 0.34726,-1.599272 0.34726,-2.756193 z"
         id="path6187"
         style="font-weight:bold;font-size:50.8px;line-height:1.25;font-family:Tahoma;-inkscape-font-specification:'Tahoma Bold';stroke-width:0.268372;fill:#40514e;fill-opacity:1"
         sodipodi:nodetypes="ssccscscccccccscccsscccsccssccccss" />
      <path
         d="m 173.20268,67.970779 c -0.004,0.518091 -0.33009,1.031218 -1,1.02911 h -22.656 c -0.63682,0.0078 -1.00889,-0.404393 -1,-1.02911 V 32.028926 c 0.005,-0.629104 0.34795,-1.0228 1,-1.028776 h 7.277 c 0.73713,0.02143 0.95581,0.410235 1,1.028776 l 1.9e-4,29.723195 14.37881,2.88e-4 c 0.66839,0.03341 0.99815,0.405967 1.00005,1.02885 z"
         id="path6189"
         style="font-weight:bold;font-size:50.8px;line-height:1.25;font-family:Tahoma;-inkscape-font-specification:'Tahoma Bold';stroke-width:0.268372;fill:#40514e;fill-opacity:1"
         sodipodi:nodetypes="cccccccccccc" />
      <path
         d="m 176.08549,68.02683 11.82159,-36.004505 c 0.23373,-0.642131 0.65461,-1.017657 1.33592,-1.022175 h 8.12 c 0.61359,0.01408 1.10243,0.273223 1.33809,1.029636 l 11.80414,35.950517 c 0.18821,0.520162 -0.18003,1.010187 -0.66523,1.019586 h -7.55 c -0.65488,0.0061 -1.08472,-0.331715 -1.29602,-0.995525 l -2.01085,-6.762649 h -11.6086 l -2.10369,7.075909 c -0.15695,0.463489 -0.67143,0.668973 -1.20284,0.682265 h -7.302 c -0.46369,0.0033 -0.89797,-0.263736 -0.68051,-0.973059 z m 20.86365,-13.675598 -3.77031,-12.530471 -3.77031,12.530471 z"
         id="path6191"
         style="font-weight:bold;font-size:50.8px;line-height:1.25;font-family:Tahoma;-inkscape-font-specification:'Tahoma Bold';stroke-width:0.268372;fill:#40514e;fill-opacity:1"
         sodipodi:nodetypes="ccccccccccccccccccc" />
      <path
         d="m 242.99491,57.362628 c 0,1.888503 -0.34727,3.547322 -1.0418,4.97646 -0.69453,1.429138 -1.62884,2.611579 -2.80293,3.547323 -1.38906,1.122893 -2.91868,1.922529 -4.58886,2.398908 -1.65365,0.47638 -3.76205,0.71457 -6.3252,0.71457 H 214.453 c -0.53846,0.0074 -0.98685,-0.382936 -1,-1.02911 V 32.028926 c -0.002,-0.575491 0.33649,-1.018427 1,-1.028776 h 12.04679 c 2.71198,0 4.7625,0.110588 6.15157,0.331764 1.40559,0.204163 2.72024,0.646515 3.94394,1.327057 1.32292,0.731582 2.30684,1.70986 2.95176,2.934835 0.66146,1.224975 0.99219,2.637098 0.99219,4.236371 0,1.854476 -0.45475,3.504788 -1.36426,4.950939 -0.89297,1.446151 -2.13321,2.509497 -3.72071,3.190039 v 0.204163 c 2.28203,0.493392 4.10931,1.505698 5.48184,3.036916 1.37253,1.514206 2.05879,3.564337 2.05879,6.150394 z M 231.11346,41.7442 c 0,-0.612488 -0.15709,-1.241989 -0.47128,-1.888503 -0.29766,-0.646514 -0.76895,-1.114386 -1.41387,-1.403617 -0.61185,-0.272216 -1.33946,-0.416831 -2.18281,-0.433845 -0.82683,-0.03402 -2.06706,-0.05104 -3.72071,-0.05104 h -0.64492 v 8.038897 h 1.16582 c 1.5875,0 2.69544,-0.01702 3.32383,-0.05104 0.64492,-0.03402 1.30638,-0.21267 1.98437,-0.535926 0.74415,-0.357285 1.25678,-0.850677 1.53789,-1.480178 0.28112,-0.629501 0.42168,-1.361084 0.42168,-2.194748 z m 2.33165,15.439786 c 0,-1.173934 -0.23151,-2.092665 -0.69454,-2.756193 -0.46302,-0.663529 -1.15755,-1.165427 -2.08359,-1.505698 -0.56224,-0.221176 -1.33945,-0.340271 -2.33164,-0.357285 -0.97565,-0.03402 -2.2903,-0.05104 -3.94395,-0.05104 h -1.71152 v 9.519074 h 0.49609 c 2.41433,0 4.08451,-0.01702 5.01055,-0.05104 0.92604,-0.03402 1.86862,-0.263711 2.82774,-0.689049 0.84335,-0.374297 1.4552,-0.918731 1.83554,-1.633299 0.39688,-0.731583 0.59532,-1.556739 0.59532,-2.47547 z"
         id="path6193"
         style="font-weight:bold;font-size:50.8px;line-height:1.25;font-family:Tahoma;-inkscape-font-specification:'Tahoma Bold';stroke-width:0.268372;fill:#40514e;fill-opacity:1"
         sodipodi:nodetypes="ssccsccccscccsccccsscccsccsccsssssccsccssccss" />
      <g
         aria-label="S"
         id="text1178-6"
         style="font-weight:bold;font-size:50.8px;line-height:1.25;font-family:Tahoma;-inkscape-font-specification:'Tahoma Bold';stroke-width:0.264583;fill:#40514e;fill-opacity:1"
         transform="matrix(1.0137766,0,0,0.99285064,245.8776,31.000001)">
        <path
           d="m 13.386317,38.273631 c -2.827734,0 -5.3164718,-0.272851 -7.4662113,-0.818554 C 3.7869026,36.909374 -0.01648272,36.280988 5.3745681e-5,35.123436 L 0.03312666,27.136327 C 0.01824447,26.735594 0.39230685,26.60805 0.8103402,26.640233 c 1.8520833,1.570963 3.8943358,2.778125 6.1267577,3.621484 2.2324217,0.843359 4.3986981,1.265039 6.4988281,1.265039 0.529167,0 1.223698,-0.05788 2.083594,-0.173632 0.876433,-0.115755 1.579232,-0.297657 2.108399,-0.545704 0.644921,-0.281119 1.190624,-0.669726 1.637109,-1.16582 0.446484,-0.51263 0.669726,-1.182357 0.669726,-2.00918 0,-0.926041 -0.363802,-1.67845 -1.091406,-2.257226 C 18.115744,24.796418 17.24758,24.374738 16.238856,24.110155 14.982085,23.779426 13.634364,23.465233 12.195692,23.167577 10.773557,22.86992 9.4423713,22.506118 8.2021369,22.076171 5.3413296,21.067447 3.2908088,19.711457 2.0505745,18.008202 0.81034019,16.304947 0.19022302,14.171744 0.19022302,11.608593 c 0,-3.45612 1.46347648,-6.2507815 4.39042958,-8.3839846 C 7.5076057,1.0748688 11.162163,-9.611249e-7 15.544325,-9.611249e-7 c 2.199349,0 4.382161,0.2232421811249 6.548437,0.6697265511249 2.182813,0.44648431 5.630824,1.28392591 5.713589,2.88650201 l 0.04677,6.7497954 c 0.0024,0.528071 -0.279693,0.599718 -0.72501,0.608038 C 25.86164,10.058129 24.081986,8.7623301 22.092762,7.9374989 20.124923,7.1272125 18.099207,6.7220693 16.015614,6.7220693 c -0.810287,0 -1.537891,0.057878 -2.182813,0.1736328 -0.644921,0.1157552 -1.322916,0.3389974 -2.033984,0.6697265 -0.578776,0.2645833 -1.083138,0.6614583 -1.513086,1.190625 -0.4134118,0.5126302 -0.6201175,1.0914063 -0.6201175,1.7363284 0,0.942578 0.330729,1.694987 0.9921875,2.257226 0.677995,0.545703 1.976107,1.041797 3.894336,1.488281 1.240235,0.28112 2.43086,0.553972 3.571875,0.818555 1.157552,0.264583 2.389518,0.628385 3.695899,1.091406 2.563151,0.926042 4.464843,2.174545 5.705078,3.745508 1.256771,1.554427 1.885156,3.613216 1.885156,6.176367 0,3.671094 -1.44694,6.622852 -4.34082,8.855274 -2.877344,2.232421 -6.77168,3.348632 -11.683008,3.348632 z"
           id="path21752-6"
           sodipodi:nodetypes="sccccsscccsscccsscscccccssccscccccscs"
           style="fill:#40514e;fill-opacity:1" />
      </g>
    </g>
    <g
       aria-label="K"
       transform="matrix(-1.0137766,0,0,0.97468574,16.927105,32.000236)"
       id="text18697-8"
       style="font-weight:bold;font-size:50.8px;line-height:1.25;-inkscape-font-specification:'sans-serif Bold';stroke-width:0.264583;fill:#40514e;fill-opacity:1">
      <path
         d="m -30.777898,36.934 h -9.821691 c -0.518345,0.0026 -0.749524,-0.200688 -1.015016,-0.512808 L -54.661844,18.466687 v 6.387608 L -54.662,35.934 c -0.02301,0.529551 -0.386263,0.988338 -1,1.000177 L -63.187,36.934 c -0.658591,0.0065 -1.025304,-0.486238 -1,-1 V 1 c -0.02856,-0.69522849 0.323104,-1.01022988 1,-1.0000008670613 L -55.662,0 c 0.500806,0.01513616 1.001231,0.30549978 1,1 l 1.56e-4,17.466687 13.047239,-17.95405852 C -41.291082,0.0806136 -41.146014,0.01917166 -40.599589,0 h 9.821691 c 0.221239,0.00391363 0.234026,0.13414226 0.05425,0.33669773 l -14.140347,18.12998927 14.140347,17.90525 c 0.135577,0.187683 0.136153,0.554212 -0.05425,0.562063 z"
         id="path21773-7"
         sodipodi:nodetypes="ccccccccccccccccccccc"
         style="fill:#40514e;fill-opacity:1" />
    </g>
  </g>
</svg>
