<?xml version="1.0" encoding="UTF-8"?>
<svg id="Layer_2" xmlns="http://www.w3.org/2000/svg" viewBox="0 0 175.57 66.1">
  <g id="Layer_2-2" data-name="Layer_2">
    <g>
      <rect x="14.86" width="38.8" height="14.86" fill="#ffffff"/>
      <polygon points="94.26 10.24 75.06 29.45 75.06 0 60.2 0 60.2 36.35 60.2 51.21 60.2 66.07 75.06 66.07 75.06 51.21 89.64 51.21 89.64 66.07 104.5 66.07 104.5 51.21 104.5 36.35 89.64 36.35 89.17 36.35 104.77 20.75 94.26 10.24" fill="#ffffff"/>
      <rect x="111.06" y="28.09" width="14.86" height="38.01" fill="#ffffff"/>
      <polygon points="0 38.59 5.34 38.59 14.86 38.59 38.8 38.59 38.8 51.21 0 51.21 0 66.07 38.8 66.07 53.66 66.07 53.66 51.21 53.66 38.59 53.66 23.73 38.8 23.73 14.86 23.73 14.86 14.86 0 14.86 0 38.59" fill="#ffffff"/>
      <rect x="111.06" y=".03" width="14.86" height="14.86" fill="#ffffff"/>
      <path d="M160.71.03h-23.94v14.86h-4.31v51.21h14.86v-23.04h28.25V.03h-14.86ZM162.18,28.2h-14.86v-14.86h14.86v14.86Z" fill="#ffffff"/>
    </g>
  </g>
</svg>
